<svg width="478" height="202" viewBox="0 0 478 202" xmlns="http://www.w3.org/2000/svg" xmlns:xlink="http://www.w3.org/1999/xlink"><title>logo</title><defs><path d="M498.508 364.606c-.307.168-.61.416-.908.744-1.8 2.1-4.025 4.4-6.675 6.9-2.65 2.5-5.475 4.75-8.475 6.75-2.5 1.6-5 2.9-7.5 3.9s-4.9 1.45-7.2 1.35c-2.7-.1-5.175-1.1-7.425-3s-3.925-4.95-5.025-9.15c-.7-2.6-1.15-5.35-1.35-8.25-.2-2.9-.2-5.95 0-9.15.2-4.6.7-9.3 1.5-14.1.1-.6.15-1.15.15-1.65 2.9-1.2 5.8-2.35 8.7-3.45l20.4-7.8c1.1-.8 1.475-1.75 1.125-2.85-.35-1.1-1.225-1.55-2.625-1.35-6.9 2.6-13.7 5.2-20.4 7.8l-6.15 2.4 1.5-7.5c1.1-4.8 2.225-9.4 3.375-13.8s2.225-8.5 3.225-12.3c.1-.6-.025-1.125-.375-1.575-.35-.45-.8-.725-1.35-.825-.55-.1-1.075-.05-1.575.15s-.85.65-1.05 1.35c-1 3.8-2.1 7.975-3.3 12.525-1.2 4.55-2.35 9.275-3.45 14.175-.7 3.2-1.4 6.45-2.1 9.75-3 1.2-6.05 2.35-9.15 3.45-.7.3-1.15.725-1.35 1.275-.2.55-.225 1.075-.075 1.575.15.5.475.9.975 1.2.5.3 1.15.35 1.95.15l6.9-2.4c-.8 5-1.25 9.9-1.35 14.7-.3 7.9.5 14.95 2.4 21.15 1.1 3.3 2.75 5.975 4.95 8.025 2.2 2.05 4.8 3.325 7.8 3.825 3.8.6 7.8.1 12-1.5 3.2-1.3 6.2-2.9 9-4.8 3-2 5.825-4.25 8.475-6.75.427-.403.846-.807 1.26-1.212-.29 1.723-.435 3.4-.435 5.037 0 2.15.375 4.125 1.125 5.925.75 1.8 1.95 3.325 3.6 4.575 1.65 1.25 3.825 2.075 6.525 2.475 1.4.2 2.6.225 3.6.075 1-.15 2.3-.375 3.9-.675 2.2-.4 4.425-1.2 6.675-2.4s4.45-2.65 6.6-4.35c2.15-1.7 4.225-3.55 6.225-5.55s3.85-4 5.55-6v2.4c0 2.3.325 4.6.975 6.9.65 2.3 1.65 4.25 3 5.85 1.35 1.6 3.05 2.7 5.1 3.3 2.05.6 4.475.4 7.275-.6 3.2-1.2 6.4-2.875 9.6-5.025 3.2-2.15 6.3-4.475 9.3-6.975 2.3-1.9 4.475-3.825 6.525-5.775 2.05-1.95 3.925-3.775 5.625-5.475.5-.6.7-1.2.6-1.8-.1-.6-.325-1.1-.675-1.5-.35-.4-.825-.6-1.425-.6-.6 0-1.2.3-1.8.9l-4.65 4.65c-1.7 1.7-3.55 3.4-5.55 5.1-2.6 2.3-5.275 4.5-8.025 6.6-2.75 2.1-5.375 3.75-7.875 4.95-2.5 1.2-4.625 1.7-6.375 1.5-1.75-.2-3.175-.875-4.275-2.025-1.1-1.15-1.9-2.7-2.4-4.65-.5-1.95-.65-4.125-.45-6.525.1-1.4.275-2.9.525-4.5s.475-2.95.675-4.05c.1-1.4-.375-2.25-1.425-2.55-1.05-.3-1.925 0-2.625.9-1.8 2.2-3.7 4.475-5.7 6.825-2 2.35-4.15 4.575-6.45 6.675-2.3 2.1-4.75 4-7.35 5.7-2.6 1.7-5.3 2.95-8.1 3.75-3.6 1-6.7.65-9.3-1.05-2.6-1.7-3.9-4.5-3.9-8.4 0-3.7.8-7.3 2.4-10.8 1.6-3.5 3.5-6.7 5.7-9.6 3.4-4.6 7.05-8.05 10.95-10.35 3.9-2.3 7.6-3.35 11.1-3.15 3.2.2 5.9 1.275 8.1 3.225 2.2 1.95 3.7 4.775 4.5 8.475.1.8.425 1.375.975 1.725.55.35 1.075.5 1.575.45.5-.05.95-.325 1.35-.825.4-.5.5-1.2.3-2.1-.2-1.5-.675-3.15-1.425-4.95-.75-1.8-1.825-3.475-3.225-5.025-1.4-1.55-3.125-2.85-5.175-3.9-2.05-1.05-4.425-1.575-7.125-1.575-4.1-.1-8.1 1-12 3.3-3.9 2.3-7.45 5.15-10.65 8.55-2.1 2.3-4.25 5.425-6.45 9.375-.71 1.274-1.357 2.55-1.942 3.83zm-110.104 4.054c-3.597 3.66-7.148 7.008-10.654 10.04-3.7 3.2-7.45 5.95-11.25 8.25-4.9 3-9.925 5.225-15.075 6.675-5.15 1.45-10.775 1.975-16.875 1.575-4.5-.3-8.25-1.225-11.25-2.775-3-1.55-5.4-3.475-7.2-5.775-1.7-2.2-2.85-4.6-3.45-7.2-.452-1.958-.648-3.915-.59-5.873-.735.743-1.463 1.476-2.185 2.198-2.45 2.45-5.025 4.625-7.725 6.525-2.3 1.7-4.75 3.125-7.35 4.275-2.6 1.15-5.4 1.975-8.4 2.475-3.6.6-7.125.525-10.575-.225-3.45-.75-6.475-2.675-9.075-5.775-1.9-2.3-3.5-5.3-4.8-9-1.3-3.7-2.2-8.45-2.7-14.25l-7.394 7.812c-.073.146-.16.292-.256.438-2.5 2.6-5.175 5.025-8.025 7.275-2.85 2.25-5.875 4.225-9.075 5.925-3.5 2-7.175 3.675-11.025 5.025-3.85 1.35-7.825 2.375-11.925 3.075-6.05 1.084-12.12 1.433-18.21 1.05.258 1.202.528 2.402.81 3.6 2 8.5 4.4 17.35 7.2 26.55 0 1.4-.55 2.25-1.65 2.55-1.1.3-2-.15-2.7-1.35-2.4-8.1-4.6-16.125-6.6-24.075-.645-2.563-1.237-5.138-1.778-7.727-5.775-.754-11.382-2.253-16.822-4.498-1.1-.9-1.375-1.875-.825-2.925.55-1.05 1.525-1.425 2.925-1.125 4.46 1.87 9.06 3.158 13.803 3.864-.718-3.91-1.32-7.847-1.803-11.814-.37-2.676-.905-11.7-.905-11.7s-8.566 6.017-12.885 6.45c-4.32.433-2.682-2.4-1.694-3.525.987-1.125 14.32-7.827 14.284-8.925-.1-7.3.3-14.925 1.2-22.875.9-7.95 2.7-15.375 5.4-22.275 1.5-4.1 3.425-8.25 5.775-12.45 2.35-4.2 5.275-7.65 8.775-10.35 1.4-1.1 3.1-2.175 5.1-3.225 2-1.05 3.9-1.475 5.7-1.275 1.8.2 3.15.85 4.05 1.95.9 1.1 1.525 2.425 1.875 3.975.35 1.55.475 3.2.375 4.95-.1 1.75-.2 3.275-.3 4.575-.2 1.8-.4 3.175-.6 4.125-.2.95-.55 2.225-1.05 3.825-1.4 4.8-3.05 9.5-4.95 14.1-1.9 4.6-4.15 9.1-6.75 13.5-3.7 6.2-7.825 12.05-12.375 17.55-1.3 1.573-7.5 8.175-7.5 8.175s.41 6.997.525 8.175c.543 5.903 1.362 11.76 2.457 17.57.305.02.61.04.918.055 6.75.35 13.425-.225 20.025-1.725 3.2-.8 6.3-1.725 9.3-2.775 3-1.05 5.95-2.325 8.85-3.825 6.27-3.275 11.707-7.25 16.313-11.927.12-.343.33-.667.637-.973 1.9-2 3.675-3.975 5.325-5.925 1.65-1.95 3.225-3.775 4.725-5.475 1.1-1.1 2.2-1.45 3.3-1.05.5.2.925.625 1.275 1.275.35.65.525 1.425.525 2.325.5 12.3 3.15 20.8 7.95 25.5 3.4 3.3 7.85 4.5 13.35 3.6 5.6-1 10.55-3.05 14.85-6.15 2.7-1.9 5.2-4.025 7.5-6.375 2.1-2.146 4.2-4.355 6.302-6.627.91-2.685 2.208-5.25 3.898-7.698 2.9-4.2 6.3-7.85 10.2-10.95.9-.7 1.8-1.375 2.7-2.025.9-.65 1.85-1.225 2.85-1.725 1.6-.9 3.425-1.725 5.475-2.475s4.125-1.25 6.225-1.5c2.1-.25 4.125-.15 6.075.3 1.95.45 3.725 1.425 5.325 2.925 1.8 1.7 2.875 3.525 3.225 5.475.35 1.95.225 3.9-.375 5.85-.6 1.95-1.55 3.8-2.85 5.55s-2.7 3.275-4.2 4.575c-2.1 1.9-4.6 3.35-7.5 4.35-2.9 1-5.95 1.65-9.15 1.95-3.2.3-6.4.325-9.6.075-3.2-.25-6.15-.675-8.85-1.275-.2.5-.325 1.025-.375 1.575-.05.55-.125 1.075-.225 1.575-.4 2.4-.225 4.7.525 6.9s1.925 4.125 3.525 5.775c1.6 1.65 3.55 3 5.85 4.05 2.3 1.05 4.8 1.675 7.5 1.875 7.3.7 14.6-.4 21.9-3.3 5.1-2 10.125-4.9 15.075-8.7 4.58-3.516 9.182-7.717 13.805-12.603.022-.05.045-.098.07-.147.377-.377.76-.763 1.145-1.16.06-.067.122-.13.184-.19 1.3-1.34 2.658-2.79 4.07-4.35 1.9-2.1 3.85-4.3 5.85-6.6 2.7-3.1 5.25-5.95 7.65-8.55 2.4-2.6 4.2-4.3 5.4-5.1.9-.7 1.875-.95 2.925-.75 1.05.2 2.125.7 3.225 1.5 1.9 1.3 3.7 3 5.4 5.1 1.4 1.7 2.675 3.425 3.825 5.175 1.15 1.75 1.975 3.075 2.475 3.975 1.5 2.5 2.8 5.05 3.9 7.65 1.1 2.6 1.9 5.25 2.4 7.95.8 3.8 1.025 7.5.675 11.1-.35 3.6-1.475 6.95-3.375 10.05-2 3.5-5 6.4-9 8.7-3.2 1.7-6.55 2.65-10.05 2.85-3.5.2-6.8-.4-9.9-1.8-1.7-.8-3.275-1.8-4.725-3-1.45-1.2-2.725-2.65-3.825-4.35-.4-.7-.525-1.35-.375-1.95.15-.6.45-1.05.9-1.35.45-.3.975-.4 1.575-.3.6.1 1.15.45 1.65 1.05 1.2 1.6 2.525 2.9 3.975 3.9 1.45 1 2.975 1.75 4.575 2.25 3.8 1.3 7.7 1.25 11.7-.15 3.3-1.1 6.1-3.125 8.4-6.075 2.3-2.95 3.55-6.525 3.75-10.725.1-4.6-.55-9.2-1.95-13.8-1.1-3.4-2.55-6.7-4.35-9.9-1.8-3.2-3.725-5.9-5.775-8.1-2.05-2.2-3.925-3.9-5.625-5.1-1.3 1-2.425 2-3.375 3-.95 1-2.025 2.2-3.225 3.6-2.7 3.1-5.425 6.225-8.175 9.375-2.61 2.99-5.335 5.87-8.17 8.635zm-195.08-19.585c4.45-5.45 8.476-11.175 12.076-17.175 1.9-3.2 3.65-6.475 5.25-9.825 1.6-3.35 3-6.775 4.2-10.275 1-2.9 1.8-5.8 2.4-8.7.6-2.9 1-5.95 1.2-9.15.2-1.9-.025-3.525-.675-4.875s-2.025-1.725-4.125-1.125c-2.9 1.7-5.65 3.9-8.25 6.6-3.6 4-6.425 8.575-8.475 13.725S193.35 318.5 192.35 323.5c-1.6 8-2.575 15.65-2.925 22.95-.12 2.508-.18 5.01-.175 7.507 1.38-1.616 2.737-3.243 4.075-4.882zM258.5 333.7c0-1 .35-1.825 1.05-2.475.7-.65 1.6-.975 2.7-.975s2 .325 2.7.975c.7.65 1.05 1.475 1.05 2.475s-.35 1.825-1.05 2.475c-.7.65-1.6.975-2.7.975s-2-.325-2.7-.975c-.7-.65-1.05-1.475-1.05-2.475zm76.95 13.5c-3.5 2-6.75 4.5-9.75 7.5s-5.35 6.35-7.05 10.05c2.5.6 5.1 1 7.8 1.2 2.7.2 5.4.15 8.1-.15 2.7-.3 5.3-.875 7.8-1.725 2.5-.85 4.8-2.025 6.9-3.525 1-.7 2-1.675 3-2.925 1-1.25 1.75-2.55 2.25-3.9s.7-2.725.6-4.125c-.1-1.4-.75-2.65-1.95-3.75s-2.575-1.775-4.125-2.025c-1.55-.25-3.125-.25-4.725 0-1.6.25-3.175.7-4.725 1.35-1.55.65-2.925 1.325-4.125 2.025z" id="b"/><filter x="-11.4%" y="-33.9%" width="123.2%" height="169.3%" filterUnits="objectBoundingBox" id="a"><feMorphology radius="3.5" operator="dilate" in="SourceAlpha" result="shadowSpreadOuter1"/><feOffset dx="1" dy="1" in="shadowSpreadOuter1" result="shadowOffsetOuter1"/><feGaussianBlur stdDeviation="12.5" in="shadowOffsetOuter1" result="shadowBlurOuter1"/><feColorMatrix values="0 0 0 0 1 0 0 0 0 0 0 0 0 0 0.626868207 0 0 0 1 0" in="shadowBlurOuter1"/></filter></defs><g transform="translate(-140 -253)" fill="none" fill-rule="evenodd"><use fill="#000" filter="url(#a)" xlink:href="#b"/><use fill="#FF42D1" xlink:href="#b"/></g></svg>